<?xml version="1.0" standalone="no"?>
<!DOCTYPE svg PUBLIC "-//W3C//DTD SVG 20010904//EN"
 "http://www.w3.org/TR/2001/REC-SVG-20010904/DTD/svg10.dtd">
<svg version="1.0" xmlns="http://www.w3.org/2000/svg"
 width="500.000000pt" height="500.000000pt" viewBox="0 0 500.000000 500.000000"
 preserveAspectRatio="xMidYMid meet">

<g transform="translate(0.000000,500.000000) scale(0.100000,-0.100000)"
fill="#000000" stroke="none">
<path d="M2210 4737 c-34 -17 -50 -53 -51 -117 0 -30 -4 -75 -7 -99 -7 -42 -9
-45 -57 -61 -27 -9 -74 -29 -103 -44 l-54 -27 -56 48 c-147 126 -141 127 -293
-24 -65 -64 -122 -128 -127 -143 -13 -37 4 -72 77 -153 34 -37 61 -70 61 -73
0 -2 -11 -26 -24 -52 -13 -26 -32 -72 -41 -103 l-18 -56 -110 -10 c-102 -9
-112 -12 -134 -37 -22 -26 -23 -34 -23 -196 0 -163 1 -170 24 -196 22 -26 30
-28 130 -34 59 -4 111 -11 115 -16 5 -5 14 -27 21 -49 7 -22 26 -66 42 -98
l29 -58 -71 -82 c-100 -118 -100 -119 43 -265 61 -63 125 -120 142 -127 41
-18 65 -6 152 71 l73 66 82 -35 c46 -20 95 -39 109 -42 26 -6 27 -9 34 -113 7
-98 9 -108 35 -134 l28 -28 162 0 c188 0 213 7 229 68 6 20 11 62 11 93 0 50
3 57 30 77 17 13 30 29 30 36 0 18 112 67 125 55 5 -5 25 -9 45 -9 28 0 48
-11 95 -50 95 -79 104 -76 252 74 155 156 156 158 53 275 -38 43 -70 83 -70
89 0 24 72 162 85 162 7 0 23 12 34 26 17 22 31 26 102 33 125 13 125 13 122
219 -2 92 -5 177 -8 190 -7 30 -60 52 -123 52 -27 0 -70 3 -94 6 -43 6 -46 9
-58 48 -7 22 -25 70 -41 105 l-29 64 65 76 c68 79 81 106 71 144 -3 12 -59 75
-124 140 -149 147 -156 149 -265 54 -39 -35 -77 -66 -83 -70 -7 -4 -40 6 -75
22 -35 16 -83 34 -106 41 l-41 13 -7 86 c-9 121 -13 138 -42 161 -23 18 -40
20 -187 20 -109 0 -169 -4 -186 -13z m285 -628 c180 -33 327 -159 391 -336 24
-67 28 -91 27 -178 -2 -155 -45 -258 -155 -366 -200 -197 -525 -195 -722 3
-206 209 -207 528 -1 734 122 123 289 175 460 143z m719 -215 l16 -46 -78 5
c-42 4 -93 7 -112 7 -32 2 -28 5 55 45 50 23 93 41 97 39 3 -2 13 -25 22 -50z
m-6 -90 c5 -4 -72 -103 -81 -103 -6 -1 -134 87 -161 110 -8 7 234 0 242 -7z
m219 -12 c9 -5 -2 -15 -31 -30 -34 -16 -51 -19 -75 -12 -24 7 -36 4 -56 -12
-14 -10 -25 -28 -25 -39 0 -12 -16 -27 -51 -44 -57 -30 -57 -28 21 74 l55 71
75 0 c41 0 81 -4 87 -8z m-379 -95 c52 -37 53 -39 36 -58 -9 -10 -24 -19 -33
-19 -34 0 -61 -30 -61 -68 0 -20 -8 -47 -18 -60 -18 -23 -18 -21 -18 90 1 62
-3 131 -7 152 l-9 39 29 -18 c15 -10 52 -36 81 -58z m452 -79 c-1 -114 -3
-140 -13 -128 -7 9 -37 47 -69 85 -73 90 -71 113 11 155 31 16 59 29 64 30 4
0 7 -64 7 -142z m-193 2 c11 0 50 -39 95 -94 70 -87 75 -95 55 -100 -45 -12
-134 -6 -147 9 -7 8 -29 15 -50 15 -29 0 -49 9 -89 41 -29 23 -51 49 -51 60 0
25 127 91 152 78 9 -5 25 -9 35 -9z m-108 -235 c1 -26 -17 -48 -114 -145 -63
-63 -115 -110 -115 -105 0 6 19 86 42 179 51 201 54 204 134 142 42 -33 53
-47 53 -71z m-237 -89 c-44 -174 -53 -185 -112 -134 -21 18 -39 37 -39 41 -1
9 180 249 185 244 1 -1 -14 -69 -34 -151z m223 -62 c-21 -47 -53 -86 -163
-196 -93 -94 -144 -138 -159 -138 -19 0 -40 -19 -68 -64 -5 -8 -28 -23 -50
-32 -37 -14 -32 -7 70 95 74 75 117 111 132 111 24 0 53 34 53 62 0 17 199
233 207 224 2 -2 -8 -30 -22 -62z m-360 -114 c29 -30 45 -53 40 -58 -8 -7 -94
-40 -264 -100 -8 -3 26 42 75 101 49 58 91 106 94 106 3 1 28 -21 55 -49z
m404 -71 c34 -39 61 -73 59 -74 -2 -2 -81 -24 -177 -49 l-174 -45 39 42 c45
49 188 197 190 197 1 0 29 -32 63 -71z m-610 14 c-92 -107 -110 -114 -148 -62
-13 17 -21 32 -19 33 1 1 29 8 62 15 32 7 72 19 90 27 42 18 43 18 15 -13z
m141 -158 c-101 -102 -129 -114 -165 -75 -14 16 -16 26 -9 51 8 29 18 35 124
74 63 24 122 44 130 44 8 1 -28 -42 -80 -94z m-300 4 c0 -40 26 -69 61 -69 17
0 53 -45 52 -65 -5 -53 -19 -84 -73 -159 -34 -47 -64 -86 -66 -86 -2 0 -4 100
-4 221 0 196 2 220 15 209 9 -7 15 -29 15 -51z m718 -89 c-51 -55 -100 -103
-110 -106 -10 -3 -29 3 -43 14 -67 53 -94 82 -89 96 3 9 64 29 162 54 86 22
161 41 165 41 5 1 -33 -44 -85 -99z m-585 -222 c-3 -40 -10 -79 -16 -85 -5 -7
-31 -13 -58 -13 l-49 0 61 85 c34 47 62 85 64 85 2 0 1 -33 -2 -72z"/>
<path d="M2102 3968 c4 -11 65 -51 93 -61 15 -6 -13 -85 -37 -101 -20 -14 -26
-13 -75 13 -57 31 -65 25 -33 -27 26 -42 76 -72 122 -72 30 0 48 -10 103 -57
l66 -56 36 35 36 36 -61 68 c-51 57 -62 75 -67 115 -8 61 -35 95 -83 109 -52
14 -105 13 -100 -2z"/>
<path d="M2663 3919 c-24 -16 -45 -40 -49 -53 -3 -12 -68 -85 -145 -162 -129
-129 -141 -138 -160 -126 -24 15 -25 15 -47 -30 -11 -21 -33 -41 -62 -56 -55
-27 -190 -159 -190 -185 0 -25 62 -87 87 -87 26 0 158 135 185 190 15 29 35
51 58 63 19 10 34 21 33 25 -1 4 -4 14 -8 23 -4 11 35 56 135 155 78 76 149
142 160 146 25 9 83 96 76 114 -8 21 -26 17 -73 -17z"/>
<path d="M2432 3587 c-18 -18 -32 -37 -32 -41 0 -5 29 -39 64 -76 55 -58 64
-73 68 -114 9 -74 63 -116 150 -116 45 0 41 17 -12 47 -54 30 -60 45 -36 92
28 54 40 56 101 21 30 -17 55 -29 55 -25 0 3 -9 24 -21 46 -22 45 -80 78 -135
79 -24 0 -46 14 -97 60 -36 33 -67 60 -69 60 -2 0 -18 -15 -36 -33z"/>
<path d="M2414 2198 c-43 -11 -54 -43 -54 -162 0 -89 3 -107 21 -130 16 -20
29 -26 60 -26 52 0 79 27 79 80 0 33 -3 40 -20 40 -17 0 -20 -7 -20 -40 0 -35
-3 -40 -27 -46 -43 -11 -53 15 -53 132 0 110 8 129 52 122 19 -2 24 -10 26
-40 3 -30 7 -38 23 -38 15 0 19 7 19 38 0 59 -43 87 -106 70z"/>
<path d="M3673 2202 c-29 -4 -53 -38 -53 -75 0 -21 15 -45 60 -91 33 -35 60
-72 60 -83 0 -52 -66 -54 -77 -2 -6 31 -10 34 -31 20 -18 -11 -5 -58 21 -76
55 -39 127 -3 127 63 0 28 -11 45 -61 97 -68 71 -77 107 -27 113 22 3 30 -2
40 -22 13 -30 38 -35 38 -8 0 44 -43 72 -97 64z"/>
<path d="M1240 2040 l0 -160 55 0 c46 0 60 4 80 25 32 32 35 98 5 130 -18 20
-19 23 -5 35 9 8 15 29 15 56 0 55 -24 74 -97 74 l-53 0 0 -160z m114 108 c7
-11 7 -26 0 -45 -7 -22 -17 -29 -42 -31 l-32 -3 0 51 0 51 31 -3 c18 -2 37
-11 43 -20z m-2 -131 c12 -19 9 -82 -4 -95 -7 -7 -25 -12 -40 -12 -28 0 -28 0
-28 66 l0 67 32 -7 c18 -3 36 -12 40 -19z"/>
<path d="M1576 2178 c-12 -17 -16 -49 -16 -131 0 -140 13 -167 80 -167 19 0
40 4 46 8 19 12 34 49 34 81 0 24 -4 31 -19 31 -15 0 -20 -8 -23 -36 -4 -44
-29 -65 -55 -48 -15 9 -19 29 -21 110 -4 133 0 146 41 142 29 -3 32 -6 35 -40
3 -30 7 -38 23 -38 15 0 19 7 19 33 0 55 -23 77 -80 77 -39 0 -52 -4 -64 -22z"/>
<path d="M1900 2040 c0 -136 2 -160 15 -160 12 0 15 15 16 73 1 39 4 86 8 102
5 25 10 13 30 -72 14 -63 28 -103 36 -103 7 0 21 41 36 108 24 106 24 107 31
62 3 -25 7 -73 7 -107 1 -49 4 -63 16 -63 13 0 15 23 15 144 0 79 -3 151 -6
160 -5 14 -44 24 -44 11 0 -12 -51 -239 -54 -243 -4 -3 -22 73 -46 191 -10 51
-14 57 -36 57 l-24 0 0 -160z"/>
<path d="M2180 2040 l0 -160 60 0 c46 0 60 3 60 14 0 10 -13 16 -37 18 l-38 3
-3 58 -3 57 36 0 c46 0 49 27 3 32 -32 3 -33 4 -36 56 l-3 52 40 0 c30 0 41 4
41 15 0 12 -13 15 -60 15 l-60 0 0 -160z"/>
<path d="M2590 2040 c0 -152 1 -160 20 -160 17 0 19 8 22 73 l3 72 43 3 42 3
0 -75 c0 -69 2 -76 20 -76 19 0 20 7 20 160 0 153 -1 160 -20 160 -18 0 -20
-7 -20 -71 l0 -70 -42 3 -43 3 -3 68 c-3 59 -5 67 -22 67 -19 0 -20 -8 -20
-160z"/>
<path d="M2852 2048 c-18 -84 -32 -156 -32 -160 0 -5 8 -8 19 -8 14 0 20 10
25 40 6 38 8 40 40 40 36 0 46 -12 46 -56 0 -17 6 -24 20 -24 11 0 20 6 20 13
0 6 -14 78 -32 160 -29 134 -34 147 -53 147 -20 0 -24 -13 -53 -152z m73 -5
c7 -52 6 -53 -19 -53 -30 0 -29 -5 -15 79 13 72 21 66 34 -26z"/>
<path d="M3050 2041 c0 -154 1 -161 20 -161 19 0 20 7 20 108 l1 107 46 -107
c26 -61 52 -108 60 -108 10 0 13 32 13 160 0 152 -1 160 -20 160 -18 0 -20 -8
-22 -97 l-3 -98 -41 95 c-25 58 -48 96 -58 98 -14 3 -16 -13 -16 -157z"/>
<path d="M3290 2040 c0 -153 1 -160 20 -160 19 0 20 7 20 160 0 153 -1 160
-20 160 -19 0 -20 -7 -20 -160z"/>
<path d="M3416 2178 c-12 -17 -16 -49 -16 -131 0 -140 13 -167 80 -167 19 0
40 4 46 8 19 12 34 49 34 81 0 24 -4 31 -19 31 -15 0 -20 -8 -23 -36 -4 -44
-29 -65 -55 -48 -15 9 -19 29 -21 110 -4 133 0 146 41 142 29 -3 32 -6 35 -40
3 -30 7 -38 23 -38 15 0 19 7 19 33 0 55 -23 77 -80 77 -39 0 -52 -4 -64 -22z"/>
<path d="M1460 1905 c0 -18 5 -25 20 -25 15 0 20 7 20 25 0 18 -5 25 -20 25
-15 0 -20 -7 -20 -25z"/>
<path d="M997 1753 c-13 -12 -7 -40 13 -58 24 -22 29 -55 5 -35 -19 15 -30 7
-21 -15 4 -11 15 -15 33 -13 35 4 42 37 13 63 -11 10 -20 25 -20 34 0 13 2 13
9 2 11 -17 32 -5 24 14 -5 15 -44 21 -56 8z"/>
<path d="M1090 1695 c0 -51 3 -65 15 -65 12 0 15 14 15 65 0 51 -3 65 -15 65
-12 0 -15 -14 -15 -65z"/>
<path d="M1150 1741 c-8 -16 -5 -26 16 -51 15 -17 23 -34 20 -38 -4 -3 -11 0
-16 8 -11 18 -25 6 -17 -15 9 -21 44 -19 57 4 8 16 5 26 -16 51 -15 17 -23 34
-20 38 4 3 11 0 16 -8 11 -18 25 -6 17 15 -9 21 -44 19 -57 -4z"/>
<path d="M1230 1750 c0 -5 5 -10 10 -10 6 0 10 -25 10 -55 0 -42 3 -55 15 -55
12 0 15 13 15 55 0 30 5 55 10 55 6 0 10 5 10 10 0 6 -16 10 -35 10 -19 0 -35
-4 -35 -10z"/>
<path d="M1322 1695 c0 -65 0 -65 29 -65 16 0 29 5 29 10 0 6 -7 10 -15 10
-22 0 -19 40 3 40 16 1 16 1 0 14 -22 16 -23 36 -3 36 8 0 15 5 15 10 0 6 -13
10 -29 10 l-30 0 1 -65z"/>
<path d="M1410 1695 c0 -65 19 -94 21 -32 l1 32 7 -29 c8 -39 28 -44 34 -9 l4
28 2 -27 c0 -16 6 -28 11 -28 6 0 10 28 10 65 0 48 -3 65 -14 65 -7 0 -17 -15
-21 -32 l-7 -33 -9 33 c-5 17 -16 32 -24 32 -12 0 -15 -14 -15 -65z"/>
<path d="M1541 1710 c-6 -28 -11 -58 -11 -65 0 -20 17 -19 29 3 9 16 10 16 16
0 4 -10 13 -18 20 -18 20 0 -5 124 -27 128 -12 2 -19 -9 -27 -48z m26 -32 c-3
-7 -5 -2 -5 12 0 14 2 19 5 13 2 -7 2 -19 0 -25z"/>
<path d="M1642 1748 c-17 -17 -15 -32 8 -53 11 -10 20 -25 19 -34 0 -10 -2
-12 -6 -3 -6 15 -36 16 -31 0 6 -18 34 -32 52 -25 22 9 20 50 -4 72 -23 21
-28 44 -5 25 18 -15 30 -7 22 15 -7 18 -38 20 -55 3z"/>
<path d="M1780 1695 c0 -51 3 -65 15 -65 10 0 15 10 15 30 0 23 5 30 19 30 24
0 34 25 21 51 -7 12 -21 19 -40 19 l-30 0 0 -65z m50 30 c0 -8 -4 -15 -10 -15
-5 0 -10 7 -10 15 0 8 5 15 10 15 6 0 10 -7 10 -15z"/>
<path d="M1891 1703 c-14 -72 -14 -73 4 -73 8 0 15 7 15 15 0 8 5 15 10 15 6
0 10 -7 10 -15 0 -8 7 -15 16 -15 10 0 14 6 10 18 -3 9 -8 38 -12 65 -5 35
-11 47 -24 47 -13 0 -20 -14 -29 -57z m34 -13 c3 -5 1 -10 -4 -10 -6 0 -11 5
-11 10 0 6 2 10 4 10 3 0 8 -4 11 -10z"/>
<path d="M1984 1747 c-9 -25 0 -110 14 -115 7 -2 12 6 12 22 0 14 5 26 10 26
6 0 10 -11 10 -25 0 -15 6 -25 14 -25 10 0 13 15 12 63 l-1 62 -33 3 c-21 2
-34 -2 -38 -11z m51 -25 c0 -18 -20 -15 -23 4 -3 10 1 15 10 12 7 -3 13 -10
13 -16z"/>
<path d="M2101 1710 c-6 -28 -11 -58 -11 -65 0 -20 17 -19 29 3 9 16 10 16 16
0 4 -10 13 -18 20 -18 20 0 -5 124 -27 128 -12 2 -19 -9 -27 -48z m26 -32 c-3
-7 -5 -2 -5 12 0 14 2 19 5 13 2 -7 2 -19 0 -25z"/>
<path d="M2250 1733 c-1 -16 -3 -45 -6 -65 -6 -42 7 -50 24 -15 l11 22 0 -22
c1 -33 17 -28 29 10 l10 32 1 -32 c2 -63 21 -33 21 33 0 57 -2 65 -17 62 -10
-2 -21 -16 -24 -33 l-6 -30 -8 33 c-9 39 -35 43 -35 5z"/>
<path d="M2370 1695 l0 -65 30 0 c17 0 30 5 30 10 0 6 -7 10 -15 10 -18 0 -20
36 -2 44 10 5 10 7 0 12 -18 8 -16 34 2 34 8 0 15 5 15 10 0 6 -13 10 -30 10
l-30 0 0 -65z"/>
<path d="M2460 1741 c-24 -46 -5 -111 34 -111 22 0 36 16 36 41 0 5 -7 9 -15
9 -8 0 -15 -7 -15 -15 0 -8 -4 -15 -10 -15 -5 0 -10 20 -10 45 0 25 5 45 10
45 6 0 10 -7 10 -15 0 -8 7 -15 15 -15 16 0 19 9 9 34 -9 22 -51 20 -64 -3z"/>
<path d="M2566 1723 c-4 -21 -9 -50 -12 -65 -4 -21 -2 -28 10 -28 9 0 16 7 16
15 0 8 5 15 10 15 6 0 10 -7 10 -15 0 -8 7 -15 16 -15 10 0 14 6 10 18 -3 9
-8 38 -12 65 -5 36 -10 47 -24 47 -13 0 -20 -11 -24 -37z"/>
<path d="M2650 1695 c0 -51 3 -65 15 -65 9 0 15 10 16 28 l1 27 11 -27 c16
-41 27 -34 28 17 1 25 2 53 3 62 0 9 -5 18 -11 21 -8 2 -13 -7 -14 -25 l-1
-28 -10 28 c-5 15 -16 27 -24 27 -11 0 -14 -16 -14 -65z"/>
<path d="M2760 1695 c0 -51 3 -65 15 -65 12 0 15 14 15 65 0 51 -3 65 -15 65
-12 0 -15 -14 -15 -65z"/>
<path d="M2824 1747 c-3 -8 -4 -36 -2 -63 3 -47 4 -49 33 -49 23 0 31 5 33 23
2 15 -2 22 -12 22 -9 0 -16 -7 -16 -16 0 -8 -4 -12 -10 -9 -12 8 -13 72 -1 79
5 3 11 -1 15 -9 9 -23 28 -18 24 8 -4 26 -54 38 -64 14z"/>
<path d="M2935 1738 c-20 -90 -22 -108 -13 -108 6 0 17 8 24 18 12 16 13 16
19 0 4 -10 12 -18 17 -18 10 0 4 69 -8 113 -8 24 -33 21 -39 -5z m22 -60 c-3
-7 -5 -2 -5 12 0 14 2 19 5 13 2 -7 2 -19 0 -25z"/>
<path d="M3081 1710 c-6 -28 -11 -58 -11 -65 0 -20 19 -19 26 0 4 8 10 15 15
15 5 0 9 -7 9 -15 0 -8 6 -15 14 -15 21 0 -3 124 -26 128 -12 2 -19 -9 -27
-48z m26 -32 c-3 -7 -5 -2 -5 12 0 14 2 19 5 13 2 -7 2 -19 0 -25z"/>
<path d="M3170 1711 c0 -64 7 -81 34 -81 34 0 46 20 46 77 0 40 -4 53 -15 53
-12 0 -15 -13 -15 -55 0 -30 -4 -55 -10 -55 -5 0 -10 25 -10 55 0 42 -3 55
-15 55 -11 0 -15 -12 -15 -49z"/>
<path d="M3270 1750 c0 -5 5 -10 10 -10 6 0 10 -25 10 -55 0 -42 3 -55 15 -55
12 0 15 13 15 55 0 30 5 55 10 55 6 0 10 5 10 10 0 6 -16 10 -35 10 -19 0 -35
-4 -35 -10z"/>
<path d="M3366 1744 c-3 -9 -6 -31 -6 -49 0 -50 9 -65 40 -65 16 0 30 7 34 16
10 27 7 89 -6 102 -17 17 -55 15 -62 -4z m44 -49 c0 -25 -4 -45 -10 -45 -5 0
-10 20 -10 45 0 25 5 45 10 45 6 0 10 -20 10 -45z"/>
<path d="M3470 1695 c0 -67 16 -90 23 -32 l4 32 1 -33 c2 -41 24 -39 33 4 l7
29 1 -32 c2 -62 21 -33 21 32 0 51 -3 65 -15 65 -8 0 -18 -14 -23 -32 l-9 -33
-7 33 c-4 17 -14 32 -22 32 -11 0 -14 -16 -14 -65z"/>
<path d="M3596 1744 c-3 -9 -6 -31 -6 -49 0 -18 3 -40 6 -49 7 -19 45 -21 62
-4 16 16 16 90 0 106 -17 17 -55 15 -62 -4z m44 -49 c0 -25 -4 -45 -10 -45 -5
0 -10 20 -10 45 0 25 5 45 10 45 6 0 10 -20 10 -45z"/>
<path d="M3690 1750 c0 -5 5 -10 10 -10 6 0 10 -25 10 -55 0 -42 3 -55 15 -55
12 0 15 13 15 55 0 30 5 55 10 55 6 0 10 5 10 10 0 6 -16 10 -35 10 -19 0 -35
-4 -35 -10z"/>
<path d="M3780 1695 c0 -51 3 -65 15 -65 12 0 15 14 15 65 0 51 -3 65 -15 65
-12 0 -15 -14 -15 -65z"/>
<path d="M3840 1745 c0 -39 23 -115 35 -115 8 0 18 20 24 50 13 62 14 80 2 80
-11 0 -21 -24 -22 -53 -1 -14 -5 -8 -11 16 -10 36 -28 51 -28 22z"/>
<path d="M3946 1710 c-4 -28 -9 -57 -12 -65 -4 -9 0 -15 10 -15 9 0 16 7 16
15 0 20 10 19 26 -2 21 -30 26 -8 13 56 -9 47 -16 61 -29 61 -13 0 -19 -12
-24 -50z"/>
</g>
</svg>
